# xmcd CD database file
#
# Track frame offsets:
#	150
#	16303
#	28003
#	40057
#	54675
#	68186
#	78764
#	87207
#	101553
#	112019
#	126885
#	147817
#	161339
#	175877
#
# Disc length: 2423 seconds
#
# Revision: 0
# Processed by: cddbd v1.5.1PL0 Copyright (c) Steve Scherf et al.
# Submitted via: CDex 1.51
#
DISCID=b009750e
DTITLE=Eric Lewis and Andy Ratliff - Edgar's Blues
DYEAR=2003
DGENRE=Country
TTITLE0=Salt Creek
TTITLE1=Think Of What You've Done
TTITLE2=Calicoon Rag
TTITLE3=Old Mother Flanigan
TTITLE4=Katie Dear
TTITLE5=Howlin' Edgar
TTITLE6=Tennessee Barn Burner
TTITLE7=The Kaintuck
TTITLE8=Preserve The Blameless
TTITLE9=In The Pines
TTITLE10=Reuben's Country Blues Train
TTITLE11=Going To Aurora
TTITLE12=Short Life Of Trouble
TTITLE13=Howlin' Edgar (Slight Return)
EXTD=YEAR: 2003
EXTT0=
EXTT1=
EXTT2=
EXTT3=
EXTT4=
EXTT5=
EXTT6=
EXTT7=
EXTT8=
EXTT9=
EXTT10=
EXTT11=
EXTT12=
EXTT13=
PLAYORDER=
